<svg width="90" height="88" viewBox="0 0 90 88" fill="none" xmlns="http://www.w3.org/2000/svg" xmlns:xlink="http://www.w3.org/1999/xlink">
<g filter="url(#filter102_1185)">
<path d="M0.4,14.109C0.4,8.956 0.4,6.38 1.403,4.412C2.285,2.681 3.693,1.273 5.424,0.391C7.392,-0.611 9.968,-0.611 15.12,-0.611L73.68,-0.611C78.833,-0.611 81.409,-0.611 83.377,0.391C85.108,1.273 86.516,2.681 87.398,4.412C88.4,6.38 88.4,8.956 88.4,14.109L88.4,72.669C88.4,77.821 88.4,80.397 87.398,82.365C86.516,84.096 85.108,85.504 83.377,86.386C81.409,87.389 78.833,87.389 73.68,87.389L15.12,87.389C9.968,87.389 7.392,87.389 5.424,86.386C3.693,85.504 2.285,84.096 1.403,82.365C0.4,80.397 0.4,77.821 0.4,72.669L0.4,14.109Z" clip-rule="evenodd" fill-rule="evenodd" fill="#ADB3BC"/>
</g>
<path d="M27.883,34.303C27.852,34.331 27.791,34.39 27.724,34.457C27.675,34.505 27.636,34.543 27.556,34.624L23.098,39.084C22.981,39.206 22.9,39.288 22.712,39.477C22.607,39.582 22.529,39.663 22.363,39.839C22.055,40.138 21.729,40.495 21.424,40.872C21.136,41.176 20.906,41.531 20.746,41.918C20.415,42.926 20.415,43.905 20.71,44.814L20.749,44.92C20.911,45.304 21.139,45.655 21.424,45.958C21.729,46.332 22.055,46.689 22.399,47.028C22.529,47.168 22.607,47.249 22.712,47.354L23.098,47.74L27.162,51.813C27.352,52.003 27.446,52.096 27.554,52.199C27.669,52.32 27.79,52.441 27.911,52.555C27.933,52.575 33.113,57.754 33.113,57.754C33.273,57.914 33.402,58.039 33.693,58.32C33.723,58.35 33.77,58.398 33.784,58.413C33.859,58.491 33.903,58.537 33.931,58.566C34.536,59.171 35.23,59.679 35.99,60.073C36.768,60.461 37.578,60.727 38.414,60.874C39.203,61.004 39.985,61.073 40.769,61.084C40.904,61.087 41.016,61.088 41.266,61.091C41.507,61.093 41.613,61.094 41.743,61.097L57.179,61.097C57.338,61.094 57.445,61.093 57.689,61.091C57.941,61.088 58.055,61.087 58.199,61.084C58.986,61.07 59.774,60.999 60.553,60.87C61.407,60.726 62.229,60.454 62.996,60.065C63.768,59.672 64.474,59.158 65.085,58.544C65.693,57.933 66.203,57.231 66.598,56.463C66.987,55.684 67.254,54.866 67.398,54.022C67.529,53.233 67.598,52.441 67.606,51.648C67.613,51.485 67.616,51.329 67.621,50.983C67.623,50.819 67.624,50.747 67.626,50.658L67.626,36.113C67.624,36 67.623,35.928 67.621,35.767L67.619,35.599C67.615,35.388 67.612,35.23 67.605,35.072C67.597,34.325 67.53,33.544 67.407,32.77C67.256,31.914 66.99,31.103 66.612,30.343C66.215,29.567 65.707,28.87 65.102,28.265C64.498,27.656 63.797,27.145 63.029,26.754C62.266,26.371 61.46,26.104 60.628,25.956C59.83,25.829 59.047,25.763 58.262,25.753C58.002,25.742 57.772,25.74 57.264,25.74C57.097,25.737 56.902,25.735 56.683,25.734C56.519,25.734 56.388,25.733 56.092,25.733L42.941,25.733C42.352,25.733 42.084,25.735 41.748,25.74C41.261,25.74 41.031,25.742 40.735,25.754C39.989,25.762 39.207,25.829 38.433,25.953C37.578,26.103 36.768,26.37 36.009,26.748C35.23,27.151 34.535,27.66 33.931,28.266C33.903,28.294 33.859,28.339 33.787,28.415C33.77,28.433 33.693,28.511 33.693,28.511C33.402,28.791 33.273,28.917 33.113,29.077L32.445,29.745L28.005,34.194C27.966,34.225 27.924,34.262 27.883,34.303ZM56.092,28.353C56.384,28.353 56.513,28.353 56.672,28.354C56.881,28.355 57.065,28.356 57.242,28.359C57.737,28.359 57.944,28.362 58.193,28.372C58.888,28.38 59.544,28.436 60.194,28.54C60.754,28.639 61.319,28.826 61.849,29.092C62.361,29.353 62.836,29.699 63.247,30.114C63.663,30.53 64.009,31.004 64.274,31.524C64.534,32.045 64.721,32.615 64.825,33.203C64.924,33.83 64.98,34.485 64.988,35.14C64.994,35.309 64.998,35.447 65,35.638L65.003,35.802C65.005,35.969 65.006,36.045 65.008,36.14L65.008,50.632C65.006,50.703 65.005,50.779 65.003,50.949C64.998,51.272 64.996,51.412 64.989,51.583C64.981,52.28 64.924,52.937 64.816,53.588C64.716,54.172 64.529,54.744 64.262,55.28C63.998,55.793 63.647,56.276 63.229,56.695C62.813,57.114 62.334,57.462 61.81,57.729C61.278,57.999 60.709,58.187 60.122,58.287C59.474,58.393 58.813,58.453 58.151,58.465C58.015,58.468 57.907,58.469 57.663,58.471C57.411,58.474 57.298,58.475 57.153,58.478L41.77,58.478C41.654,58.475 41.542,58.474 41.292,58.471C41.051,58.469 40.945,58.468 40.814,58.465C40.152,58.455 39.498,58.398 38.852,58.292C38.28,58.191 37.71,58.003 37.175,57.737C36.673,57.477 36.198,57.129 35.783,56.714L35.681,56.607C35.58,56.5 35.536,56.455 35.485,56.41C35.224,56.158 35.106,56.042 34.965,55.901L29.774,50.708L29.773,50.708C29.726,50.665 29.698,50.639 29.678,50.621C29.584,50.531 29.507,50.453 29.435,50.376C29.285,50.231 29.203,50.15 29.014,49.961L24.95,45.889L24.563,45.502C24.483,45.421 24.418,45.354 24.27,45.196C23.948,44.878 23.677,44.58 23.424,44.267L23.345,44.178C23.279,44.11 23.224,44.033 23.182,43.948C23.082,43.599 23.082,43.228 23.184,42.879C23.223,42.798 23.275,42.723 23.339,42.659L23.428,42.558C23.677,42.248 23.945,41.953 24.23,41.675C24.418,41.477 24.483,41.409 24.563,41.329C24.768,41.125 24.859,41.032 24.973,40.912L29.014,36.869L29.407,36.476C29.485,36.398 29.519,36.365 29.561,36.323L29.648,36.245L29.648,36.245C29.711,36.189 29.746,36.157 29.78,36.123L34.298,31.597L34.965,30.929C35.106,30.788 35.224,30.673 35.485,30.421C35.536,30.376 35.58,30.33 35.678,30.227L35.783,30.117C36.198,29.702 36.673,29.353 37.194,29.084C37.71,28.827 38.28,28.64 38.868,28.536C39.494,28.436 40.148,28.38 40.803,28.372C41.09,28.362 41.296,28.359 41.77,28.359C42.109,28.354 42.366,28.353 42.941,28.353L56.092,28.353ZM43.691,50.348C43.585,50.452 43.459,50.536 43.316,50.595C42.875,50.777 42.368,50.676 42.031,50.337C41.574,49.878 41.574,49.134 42.031,48.674C42.098,48.607 42.172,48.549 42.25,48.501L47.334,43.41L42.032,38.111L42.047,38.095C41.944,37.989 41.859,37.862 41.8,37.72C41.618,37.278 41.72,36.771 42.058,36.434C42.517,35.976 43.261,35.976 43.72,36.434C43.787,36.501 43.845,36.574 43.893,36.652L48.994,41.747L54.142,36.591C54.181,36.536 54.224,36.483 54.272,36.434C54.608,36.097 55.113,35.996 55.552,36.177C55.991,36.359 56.278,36.787 56.278,37.263C56.278,37.58 56.15,37.876 55.935,38.092L55.948,38.104L50.654,43.406L55.821,48.566C55.867,48.601 55.912,48.639 55.955,48.681C56.291,49.016 56.393,49.521 56.211,49.961C56.03,50.4 55.602,50.687 55.127,50.687C54.81,50.687 54.514,50.56 54.298,50.345L54.285,50.357L48.994,45.069L43.707,50.364L43.691,50.348Z" clip-rule="evenodd" fill-rule="evenodd" fill="#000000"/>
<defs>
<filter id="filter102_1185" x="0.400391" y="-0.611328" width="44" height="45" filterUnits="userSpaceOnUse" color-interpolation-filters="sRGB">
<feFlood flood-opacity="0" result="BackgroundImageFix"/>
<feColorMatrix in="SourceAlpha" type="matrix" values="0 0 0 0 0 0 0 0 0 0 0 0 0 0 0 0 0 0 127 0" result="hardAlpha"/>
<feMorphology radius="0" operator="dilate" in="SourceAlpha" result="0dropshadow"/>
<feOffset dx="0" dy="1"/>
<feGaussianBlur stdDeviation="0"/>
<feComposite in2="hardAlpha" operator="out"/>
<feColorMatrix type="matrix" values="0 0 0 0 0.537255 0 0 0 0 0.541176 0 0 0 0 0.552941 0 0 0 1 0"/>
<feBlend mode="normal" in2="BackgroundImageFix" result="0dropshadow"/>
<feBlend mode="normal" in="SourceGraphic" in2="0dropshadow" result="shape"/>
</filter>
</defs>
</svg>
