<svg width="58" height="56" viewBox="0 0 58 56" fill="none" xmlns="http://www.w3.org/2000/svg" xmlns:xlink="http://www.w3.org/1999/xlink">
<path d="M28.08,-0.575C43.588,-0.575 56.16,12.002 56.16,27.517C56.16,43.033 43.588,55.61 28.08,55.61C12.572,55.61 0,43.033 0,27.517C0,12.002 12.572,-0.575 28.08,-0.575ZM28.08,2.698C41.781,2.699 52.887,13.812 52.886,27.519C52.885,41.227 41.777,52.338 28.076,52.337C14.375,52.337 3.269,41.225 3.269,27.517C3.269,20.934 5.883,14.621 10.536,9.966C15.189,5.312 21.5,2.697 28.08,2.698L28.08,2.698ZM19.197,15.332C18.329,15.322 17.493,15.66 16.877,16.271C16.26,16.883 15.914,17.716 15.916,18.584C15.916,20.397 17.385,21.866 19.197,21.866C21.009,21.866 22.477,20.397 22.477,18.584C22.48,17.716 22.134,16.883 21.517,16.271C20.901,15.66 20.065,15.322 19.197,15.332L19.197,15.332ZM46.793,32.356C45.298,40.44 37.499,47.189 28.076,47.189C18.729,47.189 10.976,40.538 9.393,32.546C9.072,30.551 10.705,30.081 12.243,30.453C17.388,31.942 22.724,32.666 28.08,32.602C33.424,32.664 38.748,31.943 43.882,30.46C45.377,30.081 46.979,30.509 46.793,32.356L46.793,32.356ZM41.717,33.48C41.571,33.536 41.423,33.578 41.273,33.628C41.258,33.635 41.752,33.473 41.737,33.48C37.297,34.703 32.708,35.296 28.103,35.243C22.608,35.243 17.693,34.632 14.311,33.417C11.859,32.687 12.329,35.573 14.053,36.458C18.462,38.466 23.258,39.478 28.102,39.422C33.864,39.422 38.999,38.08 42.39,36.346C43.995,35.313 44.312,32.546 41.717,33.48L41.717,33.48ZM36.981,15.332C36.113,15.322 35.277,15.66 34.661,16.271C34.044,16.883 33.698,17.716 33.7,18.584C33.683,19.768 34.304,20.87 35.327,21.467C36.349,22.064 37.613,22.064 38.635,21.467C39.658,20.87 40.279,19.768 40.262,18.584C40.264,17.716 39.918,16.883 39.301,16.272C38.685,15.661 37.849,15.322 36.981,15.332L36.981,15.332Z" clip-rule="evenodd" fill-rule="evenodd" fill="#50555C"/>
</svg>
