<svg width="186" height="88" viewBox="0 0 186 88" fill="none" xmlns="http://www.w3.org/2000/svg" xmlns:xlink="http://www.w3.org/1999/xlink">
<g filter="url(#filter102_547)">
<path d="M0.72,14.48C0.72,9.327 0.72,6.751 1.723,4.783C2.605,3.052 4.012,1.645 5.743,0.763C7.711,-0.24 10.287,-0.24 15.44,-0.24L170,-0.24C175.152,-0.24 177.729,-0.24 179.697,0.763C181.428,1.645 182.835,3.052 183.717,4.783C184.72,6.751 184.72,9.327 184.72,14.48L184.72,73.04C184.72,78.192 184.72,80.769 183.717,82.737C182.835,84.468 181.428,85.875 179.697,86.757C177.729,87.76 175.152,87.76 170,87.76L15.44,87.76C10.287,87.76 7.711,87.76 5.743,86.757C4.012,85.875 2.605,84.468 1.723,82.737C0.72,80.769 0.72,78.192 0.72,73.04L0.72,14.48Z" clip-rule="evenodd" fill-rule="evenodd" fill="#ADB3BC"/>
</g>
<defs>
<filter id="filter102_547" x="0.719971" y="-0.240234" width="92" height="45" filterUnits="userSpaceOnUse" color-interpolation-filters="sRGB">
<feFlood flood-opacity="0" result="BackgroundImageFix"/>
<feColorMatrix in="SourceAlpha" type="matrix" values="0 0 0 0 0 0 0 0 0 0 0 0 0 0 0 0 0 0 127 0" result="hardAlpha"/>
<feMorphology radius="0" operator="dilate" in="SourceAlpha" result="0dropshadow"/>
<feOffset dx="0" dy="1"/>
<feGaussianBlur stdDeviation="0"/>
<feComposite in2="hardAlpha" operator="out"/>
<feColorMatrix type="matrix" values="0 0 0 0 0.537255 0 0 0 0 0.541176 0 0 0 0 0.552941 0 0 0 1 0"/>
<feBlend mode="normal" in2="BackgroundImageFix" result="0dropshadow"/>
<feBlend mode="normal" in="SourceGraphic" in2="0dropshadow" result="shape"/>
</filter>
</defs>
</svg>
