<svg width="40" height="36" viewBox="0 0 40 36" fill="none" xmlns="http://www.w3.org/2000/svg" xmlns:xlink="http://www.w3.org/1999/xlink">
<path d="M38.224,22.552L29.495,22.552L29.495,30.811C29.495,30.978 29.495,31.13 29.495,31.29C29.495,31.429 29.495,31.56 29.489,31.699C29.485,31.996 29.459,32.293 29.412,32.587C29.361,32.878 29.267,33.161 29.135,33.426C28.999,33.69 28.822,33.932 28.611,34.14C28.398,34.349 28.155,34.524 27.891,34.66C27.622,34.791 27.338,34.884 27.044,34.938C26.75,34.984 26.453,35.009 26.155,35.014C26.016,35.014 25.882,35.021 25.746,35.021L14.516,35.021C14.377,35.021 14.243,35.014 14.107,35.014C13.809,35.009 13.512,34.984 13.217,34.938C12.924,34.884 12.64,34.791 12.372,34.66C12.107,34.524 11.864,34.349 11.652,34.14C11.44,33.932 11.263,33.69 11.127,33.426C10.995,33.161 10.902,32.878 10.85,32.587C10.803,32.293 10.777,31.996 10.773,31.699C10.773,31.56 10.767,31.429 10.767,31.29C10.767,31.13 10.767,30.978 10.767,30.811L10.767,22.552L1.899,22.552C1.002,22.552 -0.148,20.617 0.929,19.542C1.844,18.634 16.236,4.278 19.248,1.29C19.469,1.017 19.782,0.835 20.128,0.776L20.151,0.776C20.45,0.793 20.728,0.937 20.914,1.172C23.926,4.161 38.367,18.634 39.283,19.542C40.361,20.617 39.458,22.552 38.224,22.552Z" fill="#000000"/>
</svg>
