<svg width="80" height="80" viewBox="0 0 80 80" fill="none" xmlns="http://www.w3.org/2000/svg" xmlns:xlink="http://www.w3.org/1999/xlink">
<g filter="url(#filter15_415)">
<path d="M35.2,55.6L53.88,41.6C54.96,40.8 54.96,39.2 53.88,38.4L35.2,24.4C33.88,23.4 32,24.36 32,26L32,54C32,55.64 33.88,56.6 35.2,55.6ZM40,0C17.92,0 0,17.92 0,40C0,62.08 17.92,80 40,80C62.08,80 80,62.08 80,40C80,17.92 62.08,0 40,0ZM40,72C22.36,72 8,57.64 8,40C8,22.36 22.36,8 40,8C57.64,8 72,22.36 72,40C72,57.64 57.64,72 40,72Z" fill="#DADADA"/>
</g>
<defs>
<filter id="filter15_415" x="-4" y="-4" width="48" height="48" filterUnits="userSpaceOnUse" color-interpolation-filters="sRGB">
<feFlood flood-opacity="0" result="BackgroundImageFix"/>
<feColorMatrix in="SourceAlpha" type="matrix" values="0 0 0 0 0 0 0 0 0 0 0 0 0 0 0 0 0 0 127 0" result="hardAlpha"/>
<feMorphology radius="0" operator="dilate" in="SourceAlpha" result="0dropshadow"/>
<feOffset dx="0" dy="4"/>
<feGaussianBlur stdDeviation="2"/>
<feComposite in2="hardAlpha" operator="out"/>
<feColorMatrix type="matrix" values="0 0 0 0 1 0 0 0 0 1 0 0 0 0 1 0 0 0 0.25 0"/>
<feBlend mode="normal" in2="BackgroundImageFix" result="0dropshadow"/>
<feBlend mode="normal" in="SourceGraphic" in2="0dropshadow" result="shape"/>
</filter>
</defs>
</svg>
